<svg width="15" height="15" viewBox="0 0 15 15" fill="none" xmlns="http://www.w3.org/2000/svg">
<path d="M11.3791 11.6651H3.62093C0.844186 11.6651 0 10.8209 0 8.04419V3.62093C0 0.844186 0.844186 0 3.62093 0H11.3721C14.1488 0 14.993 0.844186 14.993 3.62093V8.03721C15 10.8209 14.1558 11.6651 11.3791 11.6651ZM3.62093 1.04651C1.43023 1.04651 1.04651 1.43023 1.04651 3.62093V8.03721C1.04651 10.2279 1.43023 10.6116 3.62093 10.6116H11.3721C13.5628 10.6116 13.9465 10.2279 13.9465 8.03721V3.62093C13.9465 1.43023 13.5628 1.04651 11.3721 1.04651H3.62093Z" fill="#218C7E"/>
<path d="M7.5 15C7.21395 15 6.97675 14.7628 6.97675 14.4767V11.1419C6.97675 10.8558 7.21395 10.6186 7.5 10.6186C7.78605 10.6186 8.02326 10.8558 8.02326 11.1419V14.4767C8.02326 14.7628 7.78605 15 7.5 15Z" fill="#218C7E"/>
<path d="M14.4767 8.72093H0.523256C0.237209 8.72093 0 8.48373 0 8.19768C0 7.91163 0.237209 7.67442 0.523256 7.67442H14.4767C14.7628 7.67442 15 7.91163 15 8.19768C15 8.48373 14.7628 8.72093 14.4767 8.72093Z" fill="#218C7E"/>
<path d="M10.6395 15H4.36047C4.07442 15 3.83721 14.7628 3.83721 14.4767C3.83721 14.1907 4.07442 13.9535 4.36047 13.9535H10.6395C10.9256 13.9535 11.1628 14.1907 11.1628 14.4767C11.1628 14.7628 10.9256 15 10.6395 15Z" fill="#218C7E"/>
</svg>
