<svg width="15" height="18" viewBox="0 0 15 18" fill="none" xmlns="http://www.w3.org/2000/svg">
<path fill-rule="evenodd" clip-rule="evenodd" d="M13.8709 15.3773C14.3996 14.5708 14.5968 14.1585 15 13.2535C12.0249 12.1244 11.55 7.88577 14.4892 6.2638C13.5931 5.1347 12.3296 4.48055 11.1378 4.48055C10.2775 4.48055 9.68606 4.70459 9.15736 4.91069C8.7093 5.08096 8.30605 5.23329 7.80423 5.23329C7.26656 5.23329 6.79163 5.06303 6.2898 4.88381C5.74318 4.68667 5.16963 4.48055 4.45274 4.48055C3.11754 4.48055 1.69273 5.29601 0.787658 6.69395C-0.484819 8.66539 -0.260792 12.3574 1.7913 15.5117C2.52611 16.6408 3.51183 17.9043 4.79327 17.9222C5.33094 17.9312 5.68042 17.7699 6.06578 17.5996C6.50487 17.4025 6.97981 17.1874 7.81319 17.1874C8.64657 17.1784 9.11255 17.4025 9.55165 17.5996C9.92801 17.7699 10.2685 17.9312 10.7972 17.9222C12.0966 17.9043 13.1361 16.5064 13.8709 15.3773Z" fill="#218C7E"/>
<path fill-rule="evenodd" clip-rule="evenodd" d="M10.9498 0C11.0932 0.985722 10.69 1.96249 10.1613 2.64354C9.59672 3.37835 8.611 3.95185 7.66112 3.916C7.49086 2.96613 7.92995 1.98936 8.46762 1.3352C9.06801 0.618307 10.0806 0.0627277 10.9498 0Z" fill="#218C7E"/>
</svg>
