<svg width="15" height="15" viewBox="0 0 15 15" fill="none" xmlns="http://www.w3.org/2000/svg">
<path fill-rule="evenodd" clip-rule="evenodd" d="M14.1 0.0140881L8.1 1.2141C7.7475 1.2816 7.5 1.5891 7.5 1.9491V5.83413C7.5 6.24656 7.8375 6.58413 8.25 6.58413H14.25C14.6625 6.58413 15 6.24656 15 5.83413V0.749096C15 0.276596 14.565 -0.0759119 14.1 0.0140881Z" fill="#218C7E"/>
<path fill-rule="evenodd" clip-rule="evenodd" d="M14.1 14.653L8.1 13.453C7.7475 13.3855 7.5 13.078 7.5 12.718V8.83301C7.5 8.42051 7.8375 8.08301 8.25 8.08301H14.25C14.6625 8.08301 15 8.42051 15 8.83301V13.918C15 14.3905 14.565 14.743 14.1 14.653Z" fill="#218C7E"/>
<path fill-rule="evenodd" clip-rule="evenodd" d="M5.09248 1.7527L0.592485 2.70519C0.247485 2.78019 0 3.0877 0 3.4402V5.8327C0 6.24521 0.3375 6.58271 0.75 6.58271H5.25C5.6625 6.58271 6 6.24521 6 5.8327V2.4802C6 2.0077 5.55749 1.6477 5.09248 1.7527Z" fill="#218C7E"/>
<path fill-rule="evenodd" clip-rule="evenodd" d="M5.09248 12.913L0.592485 11.9605C0.247485 11.8855 0 11.578 0 11.2255V8.83301C0 8.42051 0.3375 8.08301 0.75 8.08301H5.25C5.6625 8.08301 6 8.42051 6 8.83301V12.1855C6 12.658 5.55749 13.018 5.09248 12.913Z" fill="#218C7E"/>
</svg>
