<svg width="15" height="17" viewBox="0 0 15 17" fill="none" xmlns="http://www.w3.org/2000/svg">
<path d="M6.66667 13.3333V15.8333C6.66667 16.2917 6.29167 16.6667 5.83333 16.6667C5.375 16.6667 5 16.2917 5 15.8333V13.3333H6.66667Z" fill="#218C7E"/>
<path d="M10 13.3333V15.8333C10 16.2917 9.62501 16.6667 9.16668 16.6667C8.70834 16.6667 8.33334 16.2917 8.33334 15.8333V13.3333H10Z" fill="#218C7E"/>
<path d="M11.6667 7.5V11.6667C11.6667 12.5833 10.9167 13.3333 10 13.3333H5.00001C4.08334 13.3333 3.33334 12.5833 3.33334 11.6667V7.5C3.33334 6.58334 4.08334 5.83334 5.00001 5.83334H10C10.9167 5.83334 11.6667 6.58334 11.6667 7.5Z" fill="#218C7E"/>
<path d="M1.66667 7.50001V10.8333C1.66667 11.2917 1.29167 11.6667 0.833333 11.6667C0.375 11.6667 0 11.2917 0 10.8333V7.50001C0 7.04167 0.375 6.66667 0.833333 6.66667C1.29167 6.66667 1.66667 7.04167 1.66667 7.50001Z" fill="#218C7E"/>
<path d="M15 7.50001V10.8333C15 11.2917 14.625 11.6667 14.1667 11.6667C13.7083 11.6667 13.3333 11.2917 13.3333 10.8333V7.50001C13.3333 7.04167 13.7083 6.66667 14.1667 6.66667C14.625 6.66667 15 7.04167 15 7.50001Z" fill="#218C7E"/>
<path d="M5.49999 4.66668H9.5C10.2333 4.66668 10.8333 4.06667 10.8333 3.33333C10.8333 1.49167 9.34167 0 7.50001 0C5.65834 0 4.16667 1.49167 4.16667 3.33333C4.16667 4.06667 4.76666 4.66668 5.49999 4.66668Z" fill="#218C7E"/>
</svg>
